# xmcd
# 
# Track frame offsets:
#     150
#     25665
#     46787
#     67547
#     84312
#     108585
#     125457
#     151170
#     174932
#     192487
#     215382
#     239612
#     258805
#     281260
#     298750
#     317675
#     326415
# 
# Disc length: 4614
# 
# Revision: 5
# Processed by: cddbd v1.5.2PL0 Copyright (c) Steve Scherf et al.
# Submitted via: fre:ac v1.0.31
# 
DISCID=dd120411
DTITLE=鈴木雅之 - MEDIUM SLOW
DYEAR=2000
DGENRE=J ポップ
TTITLE0=さよならいとしのBaby Blues(1991年収録未発表別テイク)
TTITLE1=微笑を待ちながら
TTITLE2=Misty Mauve
TTITLE3=ガラス越しに消えた夏(mediumslow version)
TTITLE4=路〜交差点〜
TTITLE5=もう涙はいらない(mediumslow version)
TTITLE6=きらいだよ
TTITLE7=10年
TTITLE8=恋人(mediumslow version)
TTITLE9=Still Live In My Heart
TTITLE10=ためいき
TTITLE11=TAXI(mediumslow version)
TTITLE12=ロンリー・チャップリン
TTITLE13=Tシャツに口紅(mediumslow version)
TTITLE14=夢で逢えたら(solo version)
TTITLE15=別れの街(a cappella version)
TTITLE16=出会えてよかった
EXTD=YEAR: 2000
EXTT0=
EXTT1=
EXTT2=
EXTT3=
EXTT4=
EXTT5=
EXTT6=
EXTT7=
EXTT8=
EXTT9=
EXTT10=
EXTT11=
EXTT12=
EXTT13=
EXTT14=
EXTT15=
EXTT16=
PLAYORDER=
